<svg version="1.1" id="Brand-icon-stackoveflow" xmlns="http://www.w3.org/2000/svg" xmlns:xlink="http://www.w3.org/1999/xlink" x="0px" y="0px"
	 viewBox="0 0 120 120" style="enable-background:new 0 0 120 120;" xml:space="preserve">
<path d="M84.4,93.8V70.6h7.7v30.9H22.6V70.6h7.7v23.2H84.4z"/>
<path d="M38.8,68.4l37.8,7.9l1.6-7.6l-37.8-7.9L38.8,68.4z M43.8,50.4l35,16.3l3.2-7L47,43.3C47,43.3,43.8,50.4,43.8,50.4z
	 M53.5,33.2l29.7,24.7l4.9-5.9L58.4,27.3C58.4,27.3,53.5,33.2,53.5,33.2z M72.7,14.9l-6.2,4.6l23,31l6.2-4.6L72.7,14.9z M38,86h38.6
	v-7.7H38V86z"/>
</svg>
