<svg width="379" height="346" viewBox="0 0 379 346" fill="none" xmlns="http://www.w3.org/2000/svg">
<path d="M27.0892 339.264L27.0493 336.952C27.0493 337.709 27.0892 338.467 27.0892 339.264Z" fill="url(#paint0_linear)"/>
<path fill-rule="evenodd" clip-rule="evenodd" d="M347.581 256.261C347.581 257.457 348.578 258.454 349.774 258.454C350.97 258.454 351.966 257.457 351.966 256.261V206.813C352.691 203.259 355.905 200.811 359.541 201.085C360.737 201.165 361.813 200.248 361.893 199.052C361.973 197.856 361.056 196.779 359.86 196.7C356.913 196.483 354.14 197.381 351.966 199.053V195.851C352.691 192.296 355.905 189.848 359.541 190.121C360.737 190.201 361.814 189.284 361.893 188.088C361.973 186.892 361.056 185.816 359.86 185.736C356.913 185.52 354.14 186.417 351.966 188.089V181.51C351.966 180.314 350.97 179.317 349.774 179.317C348.578 179.317 347.581 180.314 347.581 181.51V188.052C345.411 186.4 342.64 185.521 339.687 185.736C338.451 185.816 337.574 186.852 337.654 188.088C337.734 189.324 338.81 190.201 340.006 190.121C343.677 189.848 346.89 192.291 347.581 195.839V199.015C345.411 197.363 342.64 196.484 339.687 196.699C338.451 196.779 337.574 197.816 337.654 199.052C337.734 200.288 338.81 201.165 340.006 201.085C343.677 200.811 346.89 203.255 347.581 206.803V256.261ZM319.435 266.866C319.435 268.062 320.431 269.058 321.627 269.058C322.823 269.058 323.82 268.062 323.82 266.866V234.482C324.544 230.928 327.759 228.479 331.395 228.753C332.591 228.832 333.667 227.915 333.747 226.719C333.827 225.523 332.91 224.447 331.714 224.367C328.767 224.151 325.994 225.048 323.82 226.721V223.479C324.544 219.924 327.759 217.476 331.395 217.749C332.591 217.829 333.667 216.912 333.747 215.716C333.827 214.52 332.91 213.444 331.714 213.364C328.767 213.148 325.994 214.045 323.82 215.717V209.138C323.82 207.942 322.823 206.945 321.627 206.945C320.431 206.945 319.435 207.942 319.435 209.138V215.691C317.258 214.031 314.482 213.148 311.541 213.364C310.305 213.444 309.428 214.52 309.508 215.716C309.588 216.952 310.664 217.829 311.86 217.749C315.531 217.476 318.743 219.919 319.435 223.466V226.683C317.265 225.031 314.494 224.152 311.541 224.367C310.305 224.447 309.428 225.484 309.508 226.72C309.588 227.955 310.664 228.833 311.86 228.753C315.531 228.479 318.743 230.922 319.435 234.47V266.866Z" fill="#871FFF"/>
<path fill-rule="evenodd" clip-rule="evenodd" d="M21.8664 312.035C20.6704 312.035 19.6737 311.038 19.6737 309.842V277.088C18.9822 273.54 15.7701 271.097 12.0989 271.37C10.9029 271.45 9.82646 270.573 9.74673 269.337C9.66699 268.141 10.5441 267.065 11.78 266.985C14.7204 266.769 17.497 267.653 19.6737 269.312V262.759C19.6737 261.563 20.6704 260.566 21.8664 260.566C23.0624 260.566 24.0591 261.563 24.0591 262.759V269.338C26.2329 267.666 29.0057 266.769 31.9527 266.985C33.1488 267.065 34.0657 268.141 33.986 269.337C33.9062 270.533 32.8298 271.45 31.6338 271.37C27.9978 271.097 24.7835 273.545 24.0591 277.099V309.842C24.0591 311.038 23.0624 312.035 21.8664 312.035Z" fill="#871FFF"/>
<path d="M378.837 275.995V311.278C378.837 326.228 366.718 338.387 351.727 338.387H196.006C196.006 338.387 201.827 290.985 272.472 290.985C312.139 290.985 303.329 270.214 329.681 250.879C350.093 235.889 378.837 250.719 378.837 275.995Z" fill="url(#paint1_linear)"/>
<path d="M0.0991211 337.43H121.295C121.295 312.274 108.139 307.171 93.7471 306.653C81.2288 306.174 78.1191 282.533 57.149 285.802C44.4713 287.796 43.6739 298.6 32.551 300.992C22.7437 303.105 0.0991211 311.915 0.0991211 337.43Z" fill="url(#paint2_linear)"/>
<path d="M296.272 337.231H49.893C47.6912 337.231 45.9062 339.016 45.9062 341.218C45.9062 343.419 47.6912 345.204 49.893 345.204H296.272C298.474 345.204 300.259 343.419 300.259 341.218C300.259 339.016 298.474 337.231 296.272 337.231Z" fill="#E1E2E6"/>
<path d="M253.933 122.134L265.495 125.882C271.315 127.795 274.505 134.055 272.631 139.875C270.957 145.018 265.854 148.128 260.671 147.45L248.432 145.895L253.933 122.134Z" fill="#131415"/>
<path fill-rule="evenodd" clip-rule="evenodd" d="M131.541 128.008L131.541 128.009L117.229 172.181L108.577 193.55L106.823 197.895L104.232 204.234L102.079 209.576L101.521 210.892C101.415 211.184 101.273 211.477 101.131 211.769C101.06 211.915 100.989 212.061 100.923 212.208L99.727 214.839L55.3401 301.338L55 301.828L55.0653 301.873L55.0002 302L55.4432 302.135L90.8816 326.72C94.6611 329.342 99.8145 328.457 102.392 324.742C104.968 321.028 103.993 315.891 100.213 313.268L92.2985 307.778L97.5882 299.238L98.531 297.922L101.96 293.138C103.116 291.543 104.232 289.949 105.348 288.314C106.465 286.719 107.581 285.085 108.657 283.49C109.195 282.674 109.743 281.867 110.29 281.06L110.291 281.06L110.291 281.06L110.292 281.058C110.84 280.251 111.388 279.444 111.926 278.626L115.156 273.723C123.687 260.646 131.78 247.331 139.594 233.856L141.069 231.344C141.16 231.177 141.257 231.016 141.353 230.856L141.353 230.856L141.353 230.855L141.353 230.855L141.354 230.855C141.51 230.596 141.663 230.339 141.787 230.068L142.425 228.753C143.302 227.038 144.139 225.284 144.976 223.53L147.528 218.267L148.524 216.154L149.999 213.005C151.06 210.784 152.072 208.547 153.087 206.304L153.087 206.304L153.087 206.303C153.675 205.004 154.264 203.702 154.863 202.4C155.333 201.366 155.789 200.319 156.248 199.265C156.567 198.531 156.888 197.795 157.215 197.058C158.013 195.264 158.77 193.51 159.528 191.716C159.548 191.696 159.558 191.666 159.568 191.636C159.578 191.606 159.588 191.576 159.607 191.556C160.601 189.229 161.573 186.889 162.526 184.538L164.79 195.184L167.262 206.905L167.262 206.907C167.581 208.381 167.9 209.856 168.179 211.33C168.273 211.765 168.368 212.2 168.462 212.635L168.462 212.636L168.462 212.636C169.486 217.348 170.51 222.061 171.319 226.791L184 338H227.67C232.27 338 236 334.336 236 329.814C236 325.294 232.271 321.629 227.67 321.629H218.038L217.818 312.778L217.853 311.397C217.88 310.706 217.871 310.015 217.862 309.324C217.858 308.978 217.853 308.633 217.853 308.287V302.068V298.958L217.813 295.849C217.793 294.812 217.784 293.776 217.774 292.739L217.774 292.734C217.764 291.699 217.754 290.665 217.734 289.63L217.574 283.41L217.375 277.191C216.817 260.606 215.78 244.061 214.465 227.477C214.388 226.593 214.317 225.71 214.246 224.827V224.827C213.984 221.565 213.722 218.309 213.189 215.078L212.272 208.899L211.833 205.789L211.355 202.679L210.358 196.5L209.282 190.32L208.724 187.251L208.166 184.181L207.009 178.002C205.415 169.789 203.621 161.616 201.667 153.443C200.171 147.307 197.505 139.53 195.139 132.626L195.139 132.626C194.708 131.369 194.287 130.141 193.885 128.956C194.249 127.481 194.406 126.033 194.332 124.659L131.541 128.008Z" fill="url(#paint3_linear)"/>
<ellipse cx="167.857" cy="45.9858" rx="13.666" ry="13.666" fill="#131415"/>
<path d="M108.006 128.324C119.032 118.882 114.684 114.347 129.996 107.173C145.308 99.9979 148.103 72.0758 155.899 60.1802C160.465 53.223 177.019 43.0977 173.013 32.755C173.013 32.755 165.093 26.2637 150.371 35.6746C146.054 36.3579 142.016 36.8548 136.053 37.7556C118.287 40.3956 114.746 58.4719 104.9 64.1558C95.0235 69.8396 74.5246 57.7576 54.9574 71.8584C12.6239 102.358 59.7094 169.757 108.006 128.324Z" fill="url(#paint4_linear)"/>
<path d="M137.379 95.5927L142.642 87.8584C146.11 82.7953 153.007 81.4797 158.07 84.9083C162.536 87.9382 164.09 93.679 162.017 98.4631L159.027 105.4L137.379 95.5927Z" fill="#131415"/>
<path d="M248.392 145.895L214.824 141.589C212.471 141.27 210.358 140.274 208.724 138.759L207.847 137.922L166.997 101.188C160.738 95.4867 160.299 85.7591 166 79.5C171.701 73.2409 181.429 72.8023 187.688 78.5033L228.538 115.237L253.933 122.134L248.392 145.895Z" fill="#131415"/>
<path d="M194.411 125.696C193.494 108.832 181.973 110.227 185.84 98.666C189.707 87.1045 183.727 71.5165 170.77 72.1942C160.803 72.7125 160.086 72.3537 155.86 72.5929C142.544 73.3105 134.092 87.3039 138.597 99.862C138.597 99.862 139.754 102.693 139.873 106.52C139.993 110.347 130.903 116.447 131.541 128.048L194.411 125.696Z" fill="white"/>
<path d="M159.067 105.44L144.396 139.686L132.994 117.081L180.396 122.902C188.808 124.058 194.669 131.752 193.552 140.164C192.396 148.576 184.702 154.437 176.29 153.32L128.888 147.5L127.493 147.3C119.599 146.224 114.057 138.968 115.134 131.075C115.453 128.802 116.29 126.689 117.486 124.895L137.419 95.5928L159.067 105.44Z" fill="#131415"/>
<path d="M172.684 32.6455C172.684 32.6455 174.534 40.2705 181.449 45.8017C181.449 45.8017 181.965 33.083 172.684 32.6455Z" fill="#FCAC98"/>
<path d="M268.485 70.7852H260.511V175.835H268.485V70.7852Z" fill="#80C7F5"/>
<path d="M280.205 15.8086H248.79L226.584 38.0146V69.4299L248.79 91.6359H280.205L302.451 69.4299V38.0146L280.205 15.8086Z" fill="#D6219C"/>
<path d="M280.205 94.5861H248.79C247.993 94.5861 247.235 94.2672 246.717 93.709L224.511 71.503C223.953 70.9449 223.634 70.1874 223.634 69.4299V38.0146C223.634 37.2172 223.953 36.4598 224.511 35.9415L246.717 13.7355C247.275 13.1773 248.033 12.8584 248.79 12.8584H280.205C281.003 12.8584 281.72 13.1773 282.278 13.7355L304.524 35.9415C305.082 36.4996 305.401 37.2571 305.401 38.0146V69.4299C305.401 70.2272 305.082 70.9847 304.524 71.503L282.278 93.709C281.72 94.2672 281.003 94.5861 280.205 94.5861ZM250.026 88.6858H279.009L299.541 68.194V39.2505L279.009 18.7587H250.026L229.534 39.2505V68.2339L250.026 88.6858Z" fill="#AB197D"/>
<path d="M276.418 45.749C276.418 46.9051 276.099 48.1011 275.501 49.2971C274.903 50.4931 273.867 52.0081 272.431 53.842L270.119 56.832C269.521 57.5895 269.043 58.2274 268.684 58.7058C268.285 59.1842 268.006 59.5829 267.807 59.9018C267.607 60.2207 267.448 60.4998 267.368 60.739C267.289 60.9782 267.249 61.2573 267.249 61.4965V62.9317C267.249 63.2506 267.129 63.4898 266.85 63.6493C266.571 63.8088 266.292 63.8885 266.013 63.8885H260.87C260.591 63.8885 260.352 63.7689 260.192 63.5696C259.993 63.3702 259.913 63.131 259.913 62.852V61.4566C259.913 60.8187 259.913 60.1809 259.953 59.6227C259.993 59.0646 260.073 58.5064 260.232 57.9882C260.392 57.4699 260.591 56.9516 260.91 56.4334C261.189 55.9151 261.588 55.3171 262.066 54.6393L264.538 51.4101C265.495 50.1343 266.132 49.1377 266.451 48.4201C266.77 47.7024 266.93 46.945 266.93 46.1875V45.6692C266.93 45.0712 266.73 44.6327 266.332 44.2739C265.933 43.9151 265.295 43.7556 264.378 43.7556C263.023 43.7556 261.787 43.7955 260.631 43.9151C259.475 44.0347 258.279 44.1543 257.003 44.3137H256.843C256.245 44.3137 255.966 43.9549 255.966 43.2373V38.6526C255.966 38.2938 256.006 37.9749 256.166 37.7755C256.285 37.5762 256.524 37.4167 256.923 37.2971C258.039 36.9383 259.315 36.6991 260.79 36.4998C262.265 36.3004 263.74 36.2207 265.176 36.2207C266.97 36.2207 268.564 36.3802 269.96 36.6592C271.355 36.9383 272.511 37.4167 273.508 38.0945C274.465 38.7722 275.222 39.6493 275.74 40.7257C276.259 41.8021 276.498 43.1576 276.498 44.7921V45.749H276.418ZM267.687 74.6925C267.687 74.9716 267.568 75.2108 267.368 75.3703C267.169 75.5696 266.93 75.6493 266.651 75.6493H260.551C260.272 75.6493 260.033 75.5696 259.833 75.3703C259.634 75.1709 259.514 74.9317 259.514 74.6925V68.1942C259.514 67.9151 259.634 67.6759 259.833 67.4766C260.033 67.2772 260.272 67.1576 260.551 67.1576H266.651C266.93 67.1576 267.169 67.2772 267.368 67.4766C267.568 67.6759 267.687 67.9151 267.687 68.1942V74.6925Z" fill="white"/>
<path d="M269.122 127.875C269.122 127.875 260.112 130.506 259.554 132.819C258.717 136.407 256.405 146.373 258.438 147.171C267.169 148.845 270.717 143.423 270.717 143.423L269.122 127.875Z" fill="#131415"/>
<path d="M281.747 210.819L280.591 206.991C297.694 201.849 307.581 186.659 317.189 171.948C327.116 156.719 336.485 142.327 352.87 141.689L353.03 145.676C338.717 146.234 330.305 159.151 320.538 174.101C311.049 188.692 300.285 205.277 281.747 210.819Z" fill="#FEE3DD"/>
<path d="M48.4578 247.689C40.285 245.177 33.8664 233.257 27.6072 221.736C22.5043 212.247 16.6836 201.523 11.9395 201.523V197.536C19.0757 197.536 24.6571 207.862 31.1156 219.822C36.697 230.147 43.0358 241.829 49.6139 243.862L48.4578 247.689Z" fill="#FEE3DD"/>
<path d="M58.3354 0C44.6257 0 33.0202 9.09701 29.0954 21.6449C27.5127 20.7115 25.673 20.1741 23.7086 20.1741C17.7945 20.1741 13 25.0211 13 31H89C88.9996 13.8794 75.271 0 58.3354 0Z" fill="url(#paint5_linear)"/>
<defs>
<linearGradient id="paint0_linear" x1="27.0692" y1="336.952" x2="27.0692" y2="339.143" gradientUnits="userSpaceOnUse">
<stop stop-color="#FFE0C2"/>
<stop offset="0.401" stop-color="#7AAEFC"/>
<stop offset="0.5908" stop-color="#B8C1FC"/>
<stop offset="1" stop-color="#D2D4D4"/>
</linearGradient>
<linearGradient id="paint1_linear" x1="287.422" y1="244.875" x2="287.422" y2="338.387" gradientUnits="userSpaceOnUse">
<stop stop-color="#80C8F6"/>
<stop offset="1" stop-color="white"/>
</linearGradient>
<linearGradient id="paint2_linear" x1="60.6972" y1="285.492" x2="60.6972" y2="337.43" gradientUnits="userSpaceOnUse">
<stop stop-color="#80C8F6"/>
<stop offset="1" stop-color="white"/>
</linearGradient>
<linearGradient id="paint3_linear" x1="145.5" y1="124.659" x2="145.5" y2="338" gradientUnits="userSpaceOnUse">
<stop stop-color="#FFA68D"/>
<stop offset="1" stop-color="#DC349A"/>
</linearGradient>
<linearGradient id="paint4_linear" x1="45.046" y1="136.576" x2="168.376" y2="136.576" gradientUnits="userSpaceOnUse">
<stop stop-color="#8728FB"/>
<stop offset="1" stop-color="#FFA58B"/>
</linearGradient>
<linearGradient id="paint5_linear" x1="16.6899" y1="29.6446" x2="86.0441" y2="29.6446" gradientUnits="userSpaceOnUse">
<stop stop-color="#7FC6F4"/>
<stop offset="1" stop-color="#8728FB"/>
</linearGradient>
</defs>
</svg>
