<svg width="440" height="300" viewBox="0 0 440 300" fill="none" xmlns="http://www.w3.org/2000/svg">
<path d="M408.078 120.004C406.74 120.004 405.626 118.886 405.626 117.545V33.721C405.626 32.3799 406.74 31.2622 408.078 31.2622C409.415 31.2622 410.53 32.3799 410.53 33.721V117.545C410.53 118.886 409.415 120.004 408.078 120.004Z" fill="url(#paint0_linear)"/>
<path d="M408.078 52.095C407.944 52.095 407.81 52.095 407.676 52.0503C406.339 51.8267 405.447 50.575 405.67 49.2338C406.785 42.6173 412.669 37.9678 419.357 38.4596C420.694 38.549 421.719 39.7561 421.63 41.0972C421.541 42.4384 420.337 43.4667 419 43.3773C414.854 43.0643 411.198 45.9255 410.485 50.0385C410.307 51.2456 409.237 52.095 408.078 52.095Z" fill="#FCAC98"/>
<path d="M408.08 52.0955C406.921 52.0955 405.851 51.2461 405.672 50.039C405.004 45.926 401.348 43.0648 397.157 43.3778C395.82 43.4672 394.616 42.4836 394.527 41.0977C394.438 39.7565 395.419 38.5495 396.801 38.4601C403.532 37.9683 409.417 42.573 410.487 49.2343C410.71 50.5755 409.818 51.8272 408.481 52.0508C408.347 52.0955 408.213 52.0955 408.08 52.0955Z" fill="#FCAC98"/>
<path d="M408.078 64.3891C407.944 64.3891 407.81 64.3891 407.676 64.3444C406.339 64.1209 405.447 62.8691 405.67 61.528C406.785 54.9114 412.669 50.262 419.357 50.7538C420.694 50.8432 421.719 52.0502 421.63 53.3914C421.541 54.7326 420.337 55.7609 419 55.6714C414.854 55.3585 411.198 58.2197 410.485 62.3327C410.307 63.5397 409.237 64.3891 408.078 64.3891Z" fill="#FCAC98"/>
<path d="M408.08 64.3897C406.921 64.3897 405.851 63.5403 405.672 62.3332C405.004 58.2203 401.348 55.3591 397.157 55.672C395.82 55.7614 394.616 54.7779 394.527 53.392C394.438 52.0508 395.419 50.8437 396.801 50.7543C403.532 50.2626 409.417 54.8673 410.487 61.5285C410.71 62.8697 409.818 64.1215 408.481 64.345C408.347 64.3897 408.213 64.3897 408.08 64.3897Z" fill="#FCAC98"/>
<path d="M45.1103 214.075C43.7283 214.075 42.6138 212.957 42.6138 211.571V136.509C42.6138 135.124 43.7283 134.006 45.1103 134.006C46.4923 134.006 47.6068 135.124 47.6068 136.509V211.571C47.6068 212.957 46.4923 214.075 45.1103 214.075Z" fill="#FCAC98"/>
<path d="M45.1088 153.229C44.9751 153.229 44.8413 153.229 44.7076 153.185C43.3702 152.961 42.434 151.665 42.6569 150.323C43.6822 144.243 49.0765 139.996 55.184 140.443C56.566 140.533 57.5914 141.74 57.4576 143.126C57.3685 144.512 56.1648 145.54 54.7828 145.406C51.2163 145.138 48.0957 147.596 47.5162 151.173C47.3378 152.335 46.3125 153.229 45.1088 153.229Z" fill="#FCAC98"/>
<path d="M45.1088 153.229C43.9051 153.229 42.8797 152.38 42.6568 151.173C42.0773 147.641 38.9566 145.138 35.3902 145.406C34.0082 145.495 32.8491 144.467 32.7154 143.126C32.6262 141.74 33.6516 140.578 34.989 140.443C41.0965 139.996 46.4908 144.243 47.5161 150.323C47.739 151.665 46.8474 152.961 45.4654 153.185C45.3762 153.185 45.2425 153.229 45.1088 153.229Z" fill="#FCAC98"/>
<path d="M318.071 212.02L227.617 58.543L137.163 212.02" fill="white"/>
<path d="M209.192 87.1543L208.247 88.1026L296.486 176.575L297.432 175.627L209.192 87.1543Z" fill="#D9EEFC"/>
<path d="M193.03 117.571L192.084 118.519L271.402 198.047L272.348 197.099L193.03 117.571Z" fill="#F9D5FF"/>
<path d="M175.018 146.182L174.072 147.13L224.323 197.514L225.269 196.566L175.018 146.182Z" fill="#F9D5FF"/>
<path d="M157.555 175.329L156.609 176.277L178.992 198.719L179.938 197.771L157.555 175.329Z" fill="#F9D5FF"/>
<path d="M316.11 213.181L227.618 62.9684L139.126 213.181L135.247 210.901L225.656 57.3801C226.058 56.7095 226.816 56.2625 227.618 56.2625C228.42 56.2625 229.134 56.6648 229.58 57.3801L320.033 210.857L316.11 213.181Z" fill="#80C7F5"/>
<path d="M327.387 112.189L271.616 181.26C265.375 188.994 254.899 191.229 246.25 187.385L244.912 186.759L171.533 154.079C159.719 148.803 154.369 134.944 159.63 123.052C164.89 111.161 178.71 105.841 190.569 111.116L263.948 143.796L237.245 149.34L297.785 91.7581" fill="#131415"/>
<path d="M297.747 91.7594L309.828 80.2699C316.605 73.8322 327.304 74.1004 333.724 80.8957C339.653 87.1546 339.876 96.7218 334.615 103.249L327.393 112.19" fill="#131415"/>
<path d="M128.604 203.21L130.743 201.869L132.883 200.572L137.163 197.979L141.487 195.476L145.856 193.017C148.754 191.363 151.696 189.798 154.594 188.189L163.376 183.45C175.146 177.236 187.049 171.29 199.041 165.523C202.028 164.092 205.015 162.617 208.046 161.231L217.096 157.028C220.083 155.598 223.159 154.257 226.19 152.871C229.222 151.485 232.253 150.099 235.285 148.758L244.424 144.734C247.455 143.393 250.531 142.052 253.607 140.755L262.791 136.866L267.383 134.899L272.019 132.976L277.146 130.875C287.31 126.673 298.5 129.042 306.123 135.972L311.518 140.889L314.237 143.348L316.912 145.852C320.478 149.205 324.045 152.513 327.522 155.955L332.782 161.052L337.998 166.238C341.476 169.68 344.908 173.257 348.341 176.744C355.162 183.852 361.894 191.095 368.447 198.56C371.701 202.316 374.956 206.071 378.166 209.916C379.77 211.838 381.331 213.805 382.891 215.772L385.209 218.768L386.368 220.243L387.483 221.763L360.645 258.556L266.803 189.887L301.309 192.927L158.116 263.429L128.604 203.21Z" fill="url(#paint1_linear)"/>
<path d="M105.555 173.302C94.3207 190.291 97.1292 218.098 118.26 222.658C134.577 226.145 135.558 227.084 142.423 228.559C164.178 233.209 183.883 214.253 182.1 192.034L105.555 173.302Z" fill="#D9319A"/>
<path d="M182.147 192.079C182.147 192.079 181.523 187.027 182.95 180.813C184.421 174.599 201.718 168.698 205.775 149.698C208.896 135.123 198.33 109.999 173.053 104.366L152.501 100.476C130.256 95.5137 108.099 110.803 103.552 126.003H103.463C103.374 126.45 103.284 126.897 103.195 127.3C103.151 127.434 103.106 127.568 103.106 127.702H103.151C98.3806 153.721 116.525 156.806 105.558 173.392L182.147 192.079Z" fill="white"/>
<path d="M197.847 130.259L201.318 115.496L192.641 111.154C187.434 108.549 182.228 107.681 182.228 107.681L197.847 130.259Z" fill="white"/>
<path d="M171.8 190.692C171.711 190.692 171.666 190.692 171.577 190.692C171.042 190.558 170.685 190.022 170.819 189.485C171.399 186.714 173.137 184.299 175.322 181.304C176.838 179.248 178.532 176.878 180.181 173.928C180.449 173.436 181.073 173.257 181.563 173.525C182.053 173.794 182.232 174.419 181.964 174.911C180.27 177.951 178.532 180.365 176.971 182.467C174.921 185.283 173.316 187.518 172.781 189.888C172.692 190.335 172.246 190.692 171.8 190.692Z" fill="#2B2B2B"/>
<path d="M109.967 202.316L112.196 201.154L114.425 200.036L118.883 197.801L123.386 195.655L127.888 193.554C130.92 192.123 133.951 190.782 136.983 189.396L146.122 185.373C158.337 180.053 170.641 175.09 183.034 170.262C186.155 169.055 189.231 167.848 192.352 166.686L201.669 163.198C204.79 161.991 207.91 160.918 211.031 159.756C214.152 158.638 217.272 157.476 220.437 156.358L229.844 153.05C232.965 151.932 236.13 150.859 239.295 149.787L248.746 146.612L253.472 145.048L258.242 143.528L263.591 141.784C279.997 136.464 297.651 145.495 302.956 161.947C305.185 168.787 304.873 175.85 302.644 182.154L300.147 189.128L298.899 192.615L297.606 196.102C295.868 200.752 294.174 205.401 292.346 210.006L289.626 216.935L286.818 223.82C284.99 228.425 282.984 232.985 281.067 237.59C277.099 246.754 272.998 255.874 268.629 264.905C266.445 269.42 264.216 273.936 261.853 278.406C260.694 280.642 259.49 282.877 258.286 285.112L256.414 288.465L255.478 290.119L254.497 291.774L210.318 281.044L237.958 166.417L282.895 205.491L134.754 264.682L109.967 202.316Z" fill="url(#paint2_linear)"/>
<path d="M366.889 299.775C366.889 299.775 373.086 288.331 378.792 289.448C387.53 291.147 388.243 289.717 396.045 282.117C403.846 274.516 413.61 283.1 404.203 299.775H366.889Z" fill="#80C7F5"/>
<path d="M95.3487 297.496L19.2051 197.22H435.721L366.889 297.496H95.3487Z" fill="white"/>
<path d="M431.441 199.5L365.729 295.216H96.4626L23.7962 199.456L431.441 199.5ZM440 194.985H14.6572L94.189 299.776H368.047L440 194.985Z" fill="#80C7F5"/>
<path d="M71.7541 195.956L39.6929 228.102L40.6386 229.05L72.6999 196.904L71.7541 195.956Z" fill="#D9EEFC"/>
<path d="M113.748 195.923L60.6953 249.125L61.641 250.073L114.693 196.871L113.748 195.923Z" fill="#D9EEFC"/>
<path d="M153.967 197.648L76.6738 275.16L77.6195 276.108L154.913 198.597L153.967 197.648Z" fill="#D9EEFC"/>
<path d="M196.589 197.046L96.8833 297.033L97.829 297.981L197.535 197.994L196.589 197.046Z" fill="#D9EEFC"/>
<path d="M239.121 196.454L138.847 297.011L139.793 297.959L240.066 197.403L239.121 196.454Z" fill="#D9EEFC"/>
<path d="M281.405 196.14L181.286 296.598L182.232 297.546L282.351 197.089L281.405 196.14Z" fill="#D9EEFC"/>
<path d="M323.092 196.506L223.765 296.113L224.71 297.062L324.038 197.454L323.092 196.506Z" fill="#D9EEFC"/>
<path d="M364.587 197.064L264.691 297.241L265.637 298.19L365.532 198.013L364.587 197.064Z" fill="#D9EEFC"/>
<path d="M407.265 196.373L307.686 296.234L308.631 297.182L408.211 197.321L407.265 196.373Z" fill="#D9EEFC"/>
<path d="M400.499 246.278L350.693 296.224L351.639 297.172L401.445 247.226L400.499 246.278Z" fill="#D9EEFC"/>
<path d="M431.441 199.5L365.729 295.216H96.4626L23.7962 199.456L431.441 199.5ZM440 194.985H14.6572L94.189 299.776H368.047L440 194.985Z" fill="#80C7F5"/>
<path d="M124.814 299.776L347.85 57.5127C349.5 55.6797 352.353 55.5903 354.136 57.2444C355.964 58.9433 356.053 61.7597 354.404 63.548L136.628 299.776H124.814Z" fill="#B779FF"/>
<path d="M255.485 131.86L268.681 127.389C277.508 124.394 287.092 129.177 290.079 138.029C292.843 146.255 288.92 155.107 281.297 158.728L267.21 165.434" fill="#131415"/>
<path d="M267.208 165.479L180.544 206.653C171.583 210.9 161.151 208.441 154.954 201.288L154.063 200.26L108.992 148.133C100.521 138.342 101.547 123.499 111.31 115.005C121.073 106.511 135.874 107.539 144.344 117.33L189.46 169.457L163.023 163.064L255.483 131.859" fill="#131415"/>
<path d="M108.545 149.022L121.012 163.258L166.608 139.25L146.455 116.269C137.372 105.858 121.501 104.765 111.031 113.797C100.562 122.829 99.4623 138.611 108.545 149.022Z" fill="white"/>
<path d="M327.389 76.692C314.728 72.6237 310.493 88.1815 321.192 103.471L336.349 84.605C336.394 84.605 332.738 78.4355 327.389 76.692Z" fill="#131415"/>
<path d="M132.305 299.775C132.305 299.775 124.504 275.634 103.239 279.612C81.9739 283.636 82.9546 256.142 61.1547 260.165C39.3549 264.189 38.1512 292.398 14.6572 299.775H132.305Z" fill="url(#paint3_linear)"/>
<path d="M311.475 300C310.093 300 308.979 298.882 308.979 297.496V245.369C308.979 243.983 310.093 242.865 311.475 242.865C312.857 242.865 313.972 243.983 313.972 245.369V297.496C313.972 298.882 312.857 300 311.475 300Z" fill="#FCAC98"/>
<path d="M311.474 264.503C311.34 264.503 311.206 264.503 311.072 264.459C309.735 264.235 308.799 262.939 309.022 261.598C310.181 254.668 316.288 249.84 323.243 250.421C324.625 250.51 325.65 251.717 325.516 253.103C325.427 254.489 324.224 255.518 322.842 255.383C318.473 255.026 314.639 258.066 313.881 262.447C313.703 263.609 312.677 264.503 311.474 264.503Z" fill="#FCAC98"/>
<path d="M311.474 264.503C310.27 264.503 309.245 263.654 309.022 262.447C308.309 258.065 304.43 255.07 300.061 255.383C298.679 255.472 297.52 254.489 297.386 253.103C297.297 251.717 298.278 250.555 299.66 250.421C306.615 249.884 312.722 254.668 313.881 261.597C314.104 262.938 313.212 264.235 311.83 264.458C311.741 264.458 311.608 264.503 311.474 264.503Z" fill="#FCAC98"/>
<path d="M311.474 278.05C311.34 278.05 311.206 278.05 311.072 278.005C309.735 277.781 308.799 276.485 309.022 275.144C310.181 268.214 316.288 263.386 323.243 263.967C324.625 264.057 325.65 265.264 325.516 266.65C325.427 268.035 324.224 269.064 322.842 268.93C318.473 268.572 314.639 271.612 313.881 275.993C313.703 277.156 312.677 278.05 311.474 278.05Z" fill="#FCAC98"/>
<path d="M311.474 278.049C310.27 278.049 309.245 277.2 309.022 275.993C308.309 271.612 304.43 268.616 300.061 268.929C298.679 269.019 297.52 268.035 297.386 266.649C297.297 265.263 298.278 264.101 299.66 263.967C306.615 263.43 312.722 268.214 313.881 275.143C314.104 276.485 313.212 277.781 311.83 278.005C311.741 278.005 311.608 278.049 311.474 278.049Z" fill="#FCAC98"/>
<path d="M281.917 294.233C280.535 294.233 279.421 293.115 279.421 291.729V263.475C279.421 262.089 280.535 260.971 281.917 260.971C283.299 260.971 284.414 262.089 284.414 263.475V291.729C284.414 293.115 283.299 294.233 281.917 294.233Z" fill="#FCAC98"/>
<path d="M281.916 282.609C281.782 282.609 281.648 282.609 281.515 282.564C280.177 282.341 279.241 281.044 279.464 279.703C280.623 272.774 286.731 267.945 293.685 268.527C295.067 268.616 296.093 269.823 295.959 271.209C295.87 272.595 294.666 273.623 293.284 273.489C288.915 273.131 285.081 276.171 284.323 280.553C284.145 281.715 283.12 282.609 281.916 282.609Z" fill="#FCAC98"/>
<path d="M281.916 282.609C280.713 282.609 279.687 281.759 279.464 280.552C278.751 276.171 274.873 273.176 270.504 273.489C269.122 273.578 267.963 272.594 267.829 271.209C267.74 269.823 268.72 268.66 270.102 268.526C277.057 267.99 283.165 272.773 284.324 279.703C284.547 281.044 283.655 282.34 282.273 282.564C282.184 282.564 282.05 282.609 281.916 282.609Z" fill="#FCAC98"/>
<path d="M366.885 299.776C366.885 299.776 348.429 268.079 329.215 271.745C313.121 274.829 313.21 285.559 305.944 288.554C298.677 291.55 256.014 279.747 256.014 299.776H366.885Z" fill="url(#paint4_linear)"/>
<path d="M423.282 278.45C426.976 278.45 429.969 275.448 429.969 271.744C429.969 268.041 426.976 265.038 423.282 265.038C419.589 265.038 416.595 268.041 416.595 271.744C416.595 275.448 419.589 278.45 423.282 278.45Z" fill="#80C7F5"/>
<path d="M241.844 288.6C244.405 288.6 246.481 286.518 246.481 283.95C246.481 281.382 244.405 279.301 241.844 279.301C239.284 279.301 237.208 281.382 237.208 283.95C237.208 286.518 239.284 288.6 241.844 288.6Z" fill="#80C7F5"/>
<path d="M26.2925 260.658C29.8133 260.658 32.6675 257.796 32.6675 254.265C32.6675 250.735 29.8133 247.872 26.2925 247.872C22.7717 247.872 19.9175 250.735 19.9175 254.265C19.9175 257.796 22.7717 260.658 26.2925 260.658Z" fill="#80C7F5"/>
<path d="M439.082 106.881C439.082 99.6557 430.373 96.2726 425.566 101.605C419.176 108.716 410.58 113.991 399.835 111.354C359.174 101.261 366.695 143.121 333.216 144.153H439.082V106.881Z" fill="url(#paint5_linear)"/>
<mask id="mask0" mask-type="alpha" maskUnits="userSpaceOnUse" x="136" y="51" width="39" height="38">
<ellipse cx="155.538" cy="69.9337" rx="18.6285" ry="18.6423" fill="#C4C4C4"/>
</mask>
<g mask="url(#mask0)">
<ellipse cx="155.538" cy="69.9337" rx="18.6285" ry="18.6423" fill="#131415"/>
<path d="M158.665 47.3L169.32 49.45C167.24 53.1228 165.576 57.6019 167.08 61.6629C160.2 61.7226 153.577 59.722 149.865 57.2137L146.758 69.4717C144.155 63.393 138.081 66.8666 139.816 71.2085L135.479 75.5505L135.37 61.8719C137.322 51.7492 147.881 45.15 158.665 47.3Z" fill="#B779FF"/>
</g>
<mask id="mask1" mask-type="alpha" maskUnits="userSpaceOnUse" x="111" y="38" width="89" height="30">
<path fill-rule="evenodd" clip-rule="evenodd" d="M174.68 62.5869L198.564 64.2942C199.408 64.3546 200.044 65.0886 199.984 65.9338C199.924 66.7789 199.19 67.4151 198.345 67.3547L112.496 61.2181C111.652 61.1577 111.016 60.4237 111.076 59.5785C111.137 58.7334 111.87 58.0972 112.715 58.1576L138.403 59.9938C139.916 54.6253 144.867 38.3578 149.344 38.2132C152.444 38.113 153.94 40.0013 155.251 41.657C156.208 42.865 157.067 43.9491 158.379 44.0465C159.645 44.1406 160.617 43.2151 161.714 42.1704C163.311 40.6491 165.174 38.8749 168.599 39.6282C173.423 40.6894 174.467 57.179 174.68 62.5869Z" fill="url(#paint6_linear)"/>
</mask>
<g mask="url(#mask1)">
<path fill-rule="evenodd" clip-rule="evenodd" d="M174.68 62.5869L198.564 64.2942C199.408 64.3546 200.044 65.0886 199.984 65.9338C199.924 66.7789 199.19 67.4151 198.345 67.3547L112.496 61.2181C111.652 61.1577 111.016 60.4237 111.076 59.5785C111.137 58.7334 111.87 58.0972 112.715 58.1576L138.403 59.9938C139.916 54.6253 144.867 38.3578 149.344 38.2132C152.444 38.113 153.94 40.0013 155.251 41.657C156.208 42.865 157.067 43.9491 158.379 44.0465C159.645 44.1406 160.617 43.2151 161.714 42.1704C163.311 40.6491 165.174 38.8749 168.599 39.6282C173.423 40.6894 174.467 57.179 174.68 62.5869Z" fill="url(#paint7_linear)"/>
<path d="M139.708 53.8405L174.886 56.0576V62.5244L137.973 59.9192L139.708 53.8405Z" fill="#131415"/>
</g>
<path fill-rule="evenodd" clip-rule="evenodd" d="M55.6275 17.2755H63.3669L68.5724 17.2765H95.1183H97.2521H117.01C117.01 11.1118 112.109 6.11471 106.063 6.11471C101.903 6.11471 98.2853 8.48181 96.4333 11.9675C94.2358 5.02445 87.8493 0 80.3095 0C73.0747 0 66.9016 4.62679 64.4731 11.1354C63.7375 10.8395 62.9381 10.6755 62.1 10.6755C58.5255 10.6755 55.6275 13.6306 55.6275 17.2755ZM52.4089 52.2469C49.8222 52.2469 47.3487 52.7326 45.0702 53.6167C40.2856 48.9459 33.7731 46.0707 26.5951 46.0707C11.907 46.0707 0 58.103 0 72.9452H31.9256H53.1887H72.8911C72.8916 61.5136 63.7209 52.2469 52.4089 52.2469Z" fill="url(#paint8_linear)"/>
<defs>
<linearGradient id="paint0_linear" x1="408.078" y1="81.1508" x2="408.078" y2="115.887" gradientUnits="userSpaceOnUse">
<stop stop-color="#FCAC98"/>
<stop offset="1" stop-color="#FCAC98" stop-opacity="0"/>
</linearGradient>
<linearGradient id="paint1_linear" x1="264.664" y1="180.626" x2="377.467" y2="257.465" gradientUnits="userSpaceOnUse">
<stop stop-color="#D5279B"/>
<stop offset="1" stop-color="#FEA18C"/>
</linearGradient>
<linearGradient id="paint2_linear" x1="190.905" y1="261.387" x2="296.922" y2="285.115" gradientUnits="userSpaceOnUse">
<stop stop-color="#D5279B"/>
<stop offset="1" stop-color="#FEA18C"/>
</linearGradient>
<linearGradient id="paint3_linear" x1="20.3692" y1="298.026" x2="127.73" y2="298.026" gradientUnits="userSpaceOnUse">
<stop stop-color="#7FC6F4"/>
<stop offset="1" stop-color="#8728FB"/>
</linearGradient>
<linearGradient id="paint4_linear" x1="261.397" y1="298.537" x2="362.573" y2="298.537" gradientUnits="userSpaceOnUse">
<stop stop-color="#7FC6F4"/>
<stop offset="1" stop-color="#8728FB"/>
</linearGradient>
<linearGradient id="paint5_linear" x1="386.149" y1="99.2767" x2="386.149" y2="141.001" gradientUnits="userSpaceOnUse">
<stop stop-color="#BFD9FF"/>
<stop offset="0.9958" stop-color="#BFD9FF" stop-opacity="0"/>
</linearGradient>
<linearGradient id="paint6_linear" x1="115.389" y1="66.0842" x2="196.53" y2="66.0842" gradientUnits="userSpaceOnUse">
<stop stop-color="#D5279B"/>
<stop offset="1" stop-color="#FEA18C"/>
</linearGradient>
<linearGradient id="paint7_linear" x1="115.389" y1="66.0842" x2="175.302" y2="38.2433" gradientUnits="userSpaceOnUse">
<stop stop-color="#D5279B"/>
<stop offset="1" stop-color="#FEA18C"/>
</linearGradient>
<linearGradient id="paint8_linear" x1="5.681" y1="69.7559" x2="112.459" y2="69.7559" gradientUnits="userSpaceOnUse">
<stop stop-color="#7FC6F4"/>
<stop offset="1" stop-color="#8728FB"/>
</linearGradient>
</defs>
</svg>
