<svg width="420" height="354" viewBox="0 0 420 354" fill="none" xmlns="http://www.w3.org/2000/svg">
<g clip-path="url(#clip0)">
<g opacity="0.3">
<g opacity="0.3">
<path opacity="0.3" d="M419.033 240.676H-0.131836V241.907H419.033V240.676Z" fill="#C4ECFE"/>
</g>
<g opacity="0.3">
<path opacity="0.3" d="M419.033 192.04H-0.131836V193.271H419.033V192.04Z" fill="#C4ECFE"/>
</g>
<g opacity="0.3">
<path opacity="0.3" d="M419.033 143.447H-0.131836V144.678H419.033V143.447Z" fill="#C4ECFE"/>
</g>
<g opacity="0.3">
<path opacity="0.3" d="M419.033 94.8104H-0.131836V96.0417H419.033V94.8104Z" fill="#C4ECFE"/>
</g>
<g opacity="0.3">
<path opacity="0.3" d="M419.033 46.2179H-0.131836V47.4492H419.033V46.2179Z" fill="#C4ECFE"/>
</g>
</g>
<path d="M203.454 296.832H414.201V237.202C414.201 211.037 385.601 194.898 363.283 208.486C353.398 214.511 344.04 222.998 337.362 235.003C306.609 290.412 247.124 246.261 203.454 296.832Z" fill="url(#paint0_linear)"/>
<path d="M379.757 321.151C378.439 321.151 377.341 320.051 377.341 318.732V232.541C377.341 231.221 378.439 230.122 379.757 230.122C381.075 230.122 382.173 231.221 382.173 232.541V318.732C382.173 320.051 381.075 321.151 379.757 321.151Z" fill="white"/>
<path d="M379.757 251.318C379.625 251.318 379.494 251.318 379.362 251.274C378.044 251.054 377.165 249.823 377.385 248.504C378.527 241.688 384.546 236.982 391.399 237.51C392.717 237.598 393.728 238.785 393.64 240.105C393.552 241.424 392.366 242.435 391.048 242.347C386.742 241.995 382.92 244.986 382.217 249.295C381.954 250.483 380.899 251.318 379.757 251.318Z" fill="white"/>
<path d="M379.757 251.318C378.615 251.318 377.56 250.483 377.385 249.295C376.682 244.986 372.86 241.995 368.554 242.347C367.236 242.435 366.05 241.468 365.962 240.105C365.874 238.785 366.841 237.598 368.203 237.51C375.056 236.982 381.075 241.688 382.217 248.504C382.437 249.823 381.558 251.054 380.24 251.274C380.021 251.318 379.889 251.318 379.757 251.318Z" fill="white"/>
<path d="M379.757 263.939C379.625 263.939 379.494 263.939 379.362 263.895C378.044 263.675 377.165 262.444 377.385 261.124C378.527 254.308 384.546 249.603 391.399 250.131C392.717 250.219 393.728 251.406 393.64 252.725C393.552 254.044 392.366 255.056 391.048 254.968C386.742 254.616 382.92 257.606 382.217 261.916C381.954 263.103 380.899 263.939 379.757 263.939Z" fill="white"/>
<path d="M379.757 263.939C378.615 263.939 377.56 263.103 377.385 261.916C376.682 257.606 372.86 254.616 368.554 254.968C367.236 255.056 366.05 254.088 365.962 252.725C365.874 251.406 366.841 250.219 368.203 250.131C375.056 249.603 381.075 254.308 382.217 261.124C382.437 262.444 381.558 263.675 380.24 263.895C380.021 263.939 379.889 263.939 379.757 263.939Z" fill="white"/>
<path d="M379.757 276.604C379.625 276.604 379.494 276.604 379.362 276.56C378.044 276.34 377.165 275.109 377.385 273.789C378.527 266.973 384.546 262.268 391.399 262.796C392.717 262.884 393.728 264.071 393.64 265.39C393.552 266.709 392.366 267.721 391.048 267.633C386.742 267.281 382.92 270.271 382.217 274.581C381.954 275.768 380.899 276.604 379.757 276.604Z" fill="white"/>
<path d="M379.757 276.604C378.615 276.604 377.56 275.768 377.385 274.581C376.682 270.271 372.86 267.281 368.554 267.633C367.236 267.721 366.05 266.753 365.962 265.39C365.874 264.071 366.841 262.884 368.203 262.796C375.056 262.268 381.075 266.973 382.217 273.789C382.437 275.109 381.558 276.34 380.24 276.56C380.021 276.604 379.889 276.604 379.757 276.604Z" fill="white"/>
<path d="M229.682 354.044H419.078C419.078 314.686 398.517 306.727 376.067 305.891C356.473 305.144 351.684 268.205 318.866 273.306C299.052 276.384 297.778 293.358 280.469 297.096C265.048 300.394 229.682 314.159 229.682 354.044Z" fill="url(#paint1_linear)"/>
<path fill-rule="evenodd" clip-rule="evenodd" d="M335.391 163.236C334.073 163.236 332.974 162.136 332.974 160.817V138.54C332.212 134.626 328.672 131.932 324.627 132.233C323.309 132.321 322.123 131.354 322.035 129.991C321.947 128.627 322.914 127.484 324.275 127.396C327.53 127.159 330.583 128.128 332.974 129.95V126.403C332.212 122.489 328.672 119.795 324.627 120.096C323.309 120.184 322.123 119.217 322.035 117.853C321.947 116.49 322.914 115.347 324.275 115.259C327.53 115.021 330.583 115.991 332.974 117.813V110.597C332.974 109.278 334.073 108.179 335.391 108.179C336.708 108.179 337.807 109.278 337.807 110.597V117.855C340.202 116.01 343.258 115.02 346.506 115.259C347.824 115.347 348.834 116.534 348.746 117.853C348.658 119.173 347.472 120.184 346.154 120.096C342.147 119.794 338.605 122.495 337.807 126.415V129.992C340.202 128.147 343.258 127.158 346.506 127.396C347.824 127.484 348.834 128.671 348.746 129.99C348.658 131.31 347.472 132.321 346.154 132.233C342.147 131.931 338.605 134.632 337.807 138.553V160.817C337.807 162.136 336.708 163.236 335.391 163.236Z" fill="#D0E7F1"/>
<path d="M389.969 158.762C389.928 157.335 389.725 155.948 389.155 154.683C388.911 154.031 388.545 153.46 388.179 152.889C387.772 152.318 387.324 151.787 386.836 151.298C384.842 149.34 381.993 148.239 379.226 148.28C378.86 148.28 378.534 148.32 378.208 148.361L377.679 148.443C377.517 148.443 377.354 148.484 377.191 148.524C376.499 148.647 375.889 148.891 375.238 149.177C374.912 149.34 374.627 149.462 374.302 149.666C374.139 149.748 373.976 149.83 373.854 149.952L373.406 150.237C373.122 150.441 372.837 150.686 372.552 150.89L371.372 151.91C368.157 154.561 364.616 156.886 360.791 158.681C356.966 160.475 352.856 161.78 348.624 162.392C348.094 162.474 347.565 162.555 347.036 162.596C346.507 162.637 345.938 162.719 345.49 162.759L342.641 163.004C340.729 163.167 338.816 163.371 336.944 163.575C329.375 164.391 321.846 165.451 314.399 167.001C310.696 167.736 307.034 168.633 303.371 169.612C301.54 170.101 299.749 170.631 297.959 171.162C296.168 171.733 294.378 172.304 292.628 172.956C290.837 173.568 289.128 174.262 287.378 174.914C285.669 175.648 283.919 176.342 282.21 177.117C280.501 177.851 278.832 178.708 277.164 179.523C275.536 180.421 273.868 181.236 272.24 182.215C265.729 185.886 259.665 190.291 254.09 195.186L252.015 197.062L250.997 198L250.021 198.979L248.027 200.937L246.114 202.976L245.178 203.996L244.242 205.057L242.411 207.178C241.8 207.912 241.231 208.646 240.661 209.38C240.091 210.114 239.521 210.808 238.911 211.624C234.15 217.823 229.144 223.901 223.854 229.693C218.523 235.485 212.866 241.113 206.437 246.008C204.85 247.272 203.181 248.414 201.513 249.556L198.949 251.188C198.542 251.473 198.094 251.718 197.647 251.963L196.304 252.738C192.723 254.737 188.938 256.409 185.031 257.714C181.125 259.019 177.137 259.917 173.189 260.569C169.242 261.222 165.376 261.711 161.632 262.242C157.847 262.772 154.185 263.384 150.563 264.24C146.941 265.097 143.442 266.157 139.982 267.422L138.68 267.911L138.029 268.156L137.378 268.441L134.774 269.543L132.169 270.644L131.518 270.929L130.867 271.215L129.565 271.827L127.001 273.01C126.146 273.417 125.292 273.785 124.437 274.233L119.391 276.803C112.717 280.351 106.247 284.308 100.102 288.672C98.5961 289.773 97.0497 290.875 95.544 292.017C94.8115 292.588 94.0383 293.159 93.3058 293.73L91.1083 295.525C89.684 296.707 88.219 297.931 86.8761 299.196C86.1843 299.807 85.5332 300.46 84.8414 301.072L83.8647 302.051L83.3763 302.54L82.9287 302.989L79.958 300.215C85.3704 294.709 91.4746 289.855 97.7415 285.368C104.049 280.882 110.642 276.844 117.478 273.214C124.315 269.583 131.355 266.402 138.558 263.628C142.18 262.282 145.883 261.181 149.627 260.284C153.371 259.386 157.196 258.775 161.022 258.204C164.847 257.673 168.672 257.184 172.497 256.531C176.323 255.879 180.067 255.022 183.77 253.839C187.432 252.616 190.973 251.066 194.35 249.189L195.612 248.455C196.019 248.21 196.467 247.966 196.873 247.721L199.315 246.171C200.902 245.07 202.489 243.968 203.995 242.786C210.14 238.054 215.674 232.629 220.883 226.919C226.092 221.209 231.016 215.254 235.737 209.095C240.417 202.936 245.707 197.225 251.445 192.086C257.264 186.988 263.572 182.46 270.286 178.626C271.955 177.647 273.664 176.79 275.373 175.852C277.123 174.996 278.832 174.139 280.582 173.364C282.332 172.549 284.123 171.814 285.913 171.08C287.704 170.387 289.494 169.653 291.326 169.041C293.157 168.388 294.988 167.817 296.819 167.205C298.691 166.675 300.523 166.104 302.394 165.615C306.138 164.595 309.882 163.698 313.667 162.963C321.236 161.413 328.887 160.312 336.578 159.496C338.491 159.292 340.403 159.088 342.357 158.925C344.269 158.762 346.223 158.599 348.135 158.313C351.96 157.783 355.664 156.6 359.163 154.969C362.663 153.337 365.919 151.176 368.889 148.728C369.622 148.116 370.354 147.464 371.128 146.893L371.738 146.485C371.941 146.363 372.145 146.24 372.348 146.118C372.755 145.873 373.203 145.669 373.651 145.465C374.546 145.098 375.441 144.731 376.377 144.568C376.621 144.527 376.866 144.446 377.069 144.446C377.313 144.405 377.557 144.364 377.802 144.323C378.29 144.282 378.778 144.242 379.226 144.242C383.092 144.16 386.958 145.71 389.725 148.402C390.417 149.095 391.027 149.83 391.597 150.605C392.126 151.42 392.614 152.236 392.981 153.133C393.754 154.928 394.079 156.845 394.079 158.803H389.969V158.762Z" fill="#FCAC98"/>
<path d="M213.778 38.1704C196.908 55.1008 176.787 46.5697 154.601 45.5143C132.414 44.4589 123.76 65.5669 110.404 70.0964C97.0482 74.6258 75.0817 55.0129 47.8871 67.4579C-10.8514 94.2827 30.0943 187.554 98.7177 148.812C114.358 139.973 110.184 133.421 130.525 128.407C150.866 123.394 195.722 115.655 208.023 103.122C214.43 96.5945 198.797 85.5316 221.203 66.4024C226.808 51.3366 213.778 38.1704 213.778 38.1704Z" fill="url(#paint2_linear)"/>
<path d="M259.125 48.8124L288.911 85.2179C292.033 89.8214 292.582 95.6919 290.388 100.802C288.194 105.912 283.595 109.545 278.11 110.474L207.525 122.468C207.061 122.553 206.555 122.595 206.091 122.637C197.737 123.313 190.143 117.527 188.708 109.08C187.189 100.169 193.18 91.7642 202.04 90.2437L251.91 82.1348L239.337 60.5956L259.125 48.8124Z" fill="#131415"/>
<path d="M211.67 83.245L198.709 79.9909C198.446 79.9029 198.138 79.859 197.875 79.815C184.651 76.9566 172.437 87.7745 173.14 101.275L172.437 108.091L161.278 118.117L160.575 117.941C160.224 118.645 159.916 119.349 159.609 120.052V120.096C153.81 134.344 161.85 150.791 177.138 154.661L189.571 157.387C203.498 160.905 217.249 152.33 220.72 139.006C221.379 136.499 221.203 133.816 220.237 131.398L217.952 125.593C216.414 121.723 216.942 117.37 219.358 113.984C226.475 103.869 223.356 89.6654 212.46 83.8167C210.747 82.8493 213.603 83.7727 211.67 83.245Z" fill="white"/>
<path fill-rule="evenodd" clip-rule="evenodd" d="M205.695 189.973C205.621 189.963 205.547 189.952 205.473 189.942L187.814 243.227C187.155 245.206 186.276 247.096 185.134 248.855L115.588 347.272L85.0547 324.317L141.816 226.868L158.467 157.563C160.092 150.703 159.917 143.579 158.247 136.763C156.929 131.31 157.896 126.912 157.896 126.912L186.627 130.108L186.628 130.079L255.91 137.027L257.184 137.159L270.584 138.522L278.58 139.313L300.063 141.468C306.741 142.128 312.848 145.514 316.977 150.835C319.921 154.617 321.634 159.146 321.986 163.807C322.337 165.742 322.293 167.633 321.986 169.568L321.722 170.624L300.81 256.683L299.58 261.696L295.582 278.099L295.142 279.814L288.181 308.465H299.08C304.322 308.465 308.57 312.715 308.57 317.957C308.57 323.201 304.321 327.45 299.08 327.45H249.331L250.893 319.531L269.529 187.686L210.132 190.193C208.638 190.281 207.145 190.193 205.695 189.973Z" fill="url(#paint3_linear)"/>
<path d="M239.447 60.6858L234.286 52.1197C230.901 47.1405 232.213 40.3889 237.205 37.0553C242.197 33.6795 248.966 34.9877 252.309 39.9669L259.205 48.8705L239.447 60.6858Z" fill="#131415"/>
<ellipse cx="225.377" cy="53.6496" rx="16.6945" ry="16.7106" fill="#131415"/>
<path d="M230.033 36.3674C227.222 43.5354 234.646 56.2002 241.148 58.7508C241.148 58.7948 247.079 42.7878 230.033 36.3674Z" fill="#FFA68E"/>
<path d="M232.802 37.4668C232.802 37.4668 223.62 64.2917 200.643 57.6954C200.643 57.6954 204.597 53.8256 207.584 46.2618C210.571 38.6981 219.446 31.2223 232.802 37.4668Z" fill="#FFA68E"/>
<path d="M122.925 197.932L116.862 210.421C115.017 215.039 110.667 217.853 106.01 217.985C104.429 218.029 102.803 217.765 101.222 217.105C95.071 214.643 92.0836 207.607 94.5438 201.45L98.6296 188.478L122.925 197.932Z" fill="#131415"/>
<path d="M220.895 133.553C211.669 133.597 197.435 140.061 188.824 148.548C181.224 156.024 165.628 160.377 156.841 162.796C153.941 163.588 151.217 160.949 151.964 158.047L159.169 128.847L181.443 120.228L220.895 133.553Z" fill="white"/>
<path d="M98.6294 188.434L115.544 134.784C116.686 131.925 118.619 129.419 121.079 127.528L177.929 84.6962C185.441 79.0674 196.073 80.5625 201.696 88.0383C207.32 95.558 205.826 106.2 198.357 111.829L145.286 151.802L122.924 197.844L98.6294 188.434Z" fill="#131415"/>
<path d="M238.212 46.5965L249.979 45.6162L249.333 37.7741L237.961 36.9391L236.024 37.8104C234.23 38.6092 233.154 40.4245 233.297 42.385C233.549 44.9264 235.737 46.8143 238.212 46.5965Z" fill="#131415"/>
<path fill-rule="evenodd" clip-rule="evenodd" d="M69.188 222.311C72.5701 221.31 75.0378 218.177 75.0378 214.467C75.0378 209.949 71.3792 206.287 66.8662 206.287C62.3532 206.287 58.6947 209.949 58.6947 214.467C58.6947 218.177 61.1624 221.31 64.5444 222.311C64.4547 222.567 64.406 222.843 64.406 223.13V229.052C62.2848 227.573 59.6635 226.797 56.8933 227C55.5753 227.132 54.5209 228.319 54.6527 229.638C54.7845 230.957 55.9268 231.969 57.2887 231.881C60.7217 231.666 63.7355 233.969 64.406 237.313V296.92C64.406 298.283 65.5043 299.383 66.8662 299.383C68.2282 299.383 69.3265 298.283 69.3265 296.92V237.103C70.0766 233.831 73.037 231.628 76.3995 231.881C77.7614 232.013 78.9476 231.001 79.0355 229.638C79.1673 228.275 78.1568 227.088 76.7949 227C74.0439 226.799 71.4398 227.562 69.3265 229.022V223.13C69.3265 222.843 69.2777 222.567 69.188 222.311Z" fill="#CFA5FF"/>
<path d="M-0.131836 282.892V354.044H208.287C208.287 354.044 201.653 299.954 121.123 299.954C75.8723 299.954 85.933 276.252 55.8828 254.22C32.6862 237.114 -0.131836 254 -0.131836 282.892Z" fill="url(#paint4_linear)"/>
<path d="M398.473 81.3476C398.473 60.1752 379.771 37.9214 355.896 51.8087C332.134 65.639 340.604 87.3237 301.381 92.7876H398.473V81.3476Z" fill="url(#paint5_linear)"/>
<path d="M3.25122 155.716C3.82235 156.156 4.26168 156.684 4.78887 157.211C5.00854 157.475 5.27214 157.739 5.53574 157.959C5.79933 158.223 6.019 158.443 6.32653 158.706C7.38093 159.674 8.52318 160.553 9.70938 161.345C10.8956 162.136 12.1696 162.796 13.4876 163.324C14.1466 163.588 14.8495 163.807 15.5085 163.983L16.5629 164.203C16.9144 164.291 17.2659 164.291 17.6173 164.379L18.1445 164.467L18.6717 164.511C19.0232 164.511 19.3747 164.555 19.7261 164.555C20.429 164.511 21.132 164.511 21.8788 164.423C23.2847 164.247 24.6905 163.895 26.0525 163.588C28.8642 163.016 31.7198 162.708 34.5316 162.884C35.2345 162.884 35.9374 163.016 36.6403 163.104C37.3433 163.236 38.0462 163.324 38.7491 163.544C39.4521 163.72 40.1111 163.939 40.7701 164.159L41.7366 164.555C42.088 164.687 42.3956 164.863 42.7031 165.039C43.9772 165.698 45.1634 166.49 46.2617 167.369C47.36 168.249 48.4144 169.26 49.3809 170.316C51.314 172.427 53.0274 174.713 54.7847 176.956C56.542 179.199 58.3872 181.398 60.5399 183.288L57.6403 186.587C55.1801 184.388 53.1592 181.969 51.3579 179.683C49.5567 177.396 47.8872 175.197 46.1738 173.306C45.2952 172.383 44.4165 171.503 43.5378 170.8C42.6152 170.052 41.6926 169.436 40.7261 168.953C40.4625 168.821 40.2429 168.689 39.9793 168.601L39.2324 168.293C38.7052 168.117 38.178 167.941 37.6508 167.809C37.1236 167.633 36.5525 167.589 35.9813 167.457C35.4102 167.413 34.8391 167.282 34.268 167.282C31.9395 167.15 29.4353 167.413 26.8872 167.897L24.9541 168.337C24.0755 168.513 23.2408 168.733 22.3621 168.777C21.4834 168.909 20.6048 168.909 19.6822 168.953C19.2429 168.953 18.8035 168.909 18.3203 168.909C18.1006 168.909 17.8809 168.865 17.6613 168.865L17.0023 168.777C16.5629 168.689 16.1236 168.689 15.6843 168.557L14.3663 168.249C13.5316 167.985 12.6529 167.765 11.8621 167.413C10.2366 166.798 8.69892 165.962 7.24913 165.039C5.84327 164.115 4.52528 163.104 3.33908 161.961C3.03155 161.697 2.76795 161.389 2.46042 161.125C2.15289 160.861 1.88929 160.553 1.62569 160.245L0.878832 159.454C0.790966 159.366 0.7031 159.278 0.615234 159.234L3.25122 155.716Z" fill="#FEE3DD"/>
<path fill-rule="evenodd" clip-rule="evenodd" d="M233.943 0.879517V18.9093H227.354V0.879517H233.943Z" fill="black"/>
<path fill-rule="evenodd" clip-rule="evenodd" d="M203.325 5.58536L216.062 18.3344L211.402 22.9986L198.666 10.2496L203.325 5.58536Z" fill="black"/>
<path fill-rule="evenodd" clip-rule="evenodd" d="M262.631 10.2496L249.895 22.9986L245.235 18.3343L257.972 5.58533L262.631 10.2496Z" fill="black"/>
</g>
<defs>
<linearGradient id="paint0_linear" x1="213.686" y1="292.754" x2="406.004" y2="292.754" gradientUnits="userSpaceOnUse">
<stop stop-color="#D5279B"/>
<stop offset="1" stop-color="#FEA18C"/>
</linearGradient>
<linearGradient id="paint1_linear" x1="324.38" y1="272.822" x2="324.38" y2="354.044" gradientUnits="userSpaceOnUse">
<stop stop-color="#80C8F6"/>
<stop offset="1" stop-color="white"/>
</linearGradient>
<linearGradient id="paint2_linear" x1="202.531" y1="64.2037" x2="98.1122" y2="147.879" gradientUnits="userSpaceOnUse">
<stop stop-color="#FFA68D"/>
<stop offset="1" stop-color="#DC349A"/>
</linearGradient>
<linearGradient id="paint3_linear" x1="154.264" y1="163.814" x2="154.264" y2="330.687" gradientUnits="userSpaceOnUse">
<stop stop-color="#8728FB"/>
<stop offset="1" stop-color="#FFA58B"/>
</linearGradient>
<linearGradient id="paint4_linear" x1="140.388" y1="266.514" x2="78.3305" y2="376.106" gradientUnits="userSpaceOnUse">
<stop stop-color="#FFA68D"/>
<stop offset="1" stop-color="white"/>
</linearGradient>
<linearGradient id="paint5_linear" x1="349.927" y1="47.7758" x2="349.927" y2="89.625" gradientUnits="userSpaceOnUse">
<stop stop-color="#FFD8A1"/>
<stop offset="0.9958" stop-color="white"/>
</linearGradient>
<clipPath id="clip0">
<path d="M0 0H420V354H0V0Z" fill="white"/>
</clipPath>
</defs>
</svg>
