<?xml version="1.0" encoding="utf-8"?>
<!-- Generator: Adobe Illustrator 25.0.1, SVG Export Plug-In . SVG Version: 6.00 Build 0)  -->
<svg version="1.1" id="Layer_1" xmlns="http://www.w3.org/2000/svg" xmlns:xlink="http://www.w3.org/1999/xlink" x="0px" y="0px"
	 viewBox="0 0 100 100" style="enable-background:new 0 0 100 100;" xml:space="preserve">
<style type="text/css">
	.st0{fill:url(#SVGID_1_);}
	.st1{fill:#FFFFFF;}
	.st2{fill:url(#SVGID_2_);}
	.st3{fill:url(#SVGID_3_);}
</style>
<g>
	<rect x="0" width="100" height="100"/>
	<linearGradient id="SVGID_1_" gradientUnits="userSpaceOnUse" x1="48.8235" y1="106.4867" x2="46.7096" y2="46.6518">
		<stop  offset="8.011200e-04" style="stop-color:#871FFF"/>
		<stop  offset="1" style="stop-color:#80C7F5"/>
	</linearGradient>
	<path class="st0" d="M48,106c9.7,0,32.3,2.8,40-2c3.5-2.2,2-10-2.3-19.4c-6.2-14.3-20.5-24.4-37.2-24.4c-16,0-29.9,9.3-36.4,22.8
		c-4.1,8-7,17.5-3.1,20C16.8,108,38.1,106,48,106z"/>
	<circle class="st1" cx="49.3" cy="44.9" r="23.4"/>
	<linearGradient id="SVGID_2_" gradientUnits="userSpaceOnUse" x1="25.8929" y1="38.2113" x2="25.8929" y2="38.2113">
		<stop  offset="8.011200e-04" style="stop-color:#871FFF"/>
		<stop  offset="1" style="stop-color:#80C7F5"/>
	</linearGradient>
	<path class="st2" d="M25.9,38.2"/>
	<linearGradient id="SVGID_3_" gradientUnits="userSpaceOnUse" x1="54.5507" y1="168.809" x2="54.5507" y2="21.4266">
		<stop  offset="8.011200e-04" style="stop-color:#871FFF"/>
		<stop  offset="1" style="stop-color:#80C7F5"/>
	</linearGradient>
	<path class="st3" d="M72.6,47.3c2.5-0.3,5.3-1.1,8.2-2.5c0,0-9.4,2.1-9.6-12.4c-0.2-11-24.5-17.1-35-7.1
		c-19.2,14.4-7.2,31.3-7.2,31.3c-3.2-18.4,14.5-21.7,16.3-27c4.9,5,11.3,16.4,22.6,17.7c1.4,3,2.7,8.3-1.4,13.5
		c0,0,13.7,2.7,17.3-0.6C83.7,60.2,73.2,54.6,72.6,47.3z"/>
</g>
</svg>
